<?xml version="1.0" encoding="UTF-8" standalone="no"?>
<!DOCTYPE svg PUBLIC "-//W3C//DTD SVG 1.1//EN" "http://www.w3.org/Graphics/SVG/1.1/DTD/svg11.dtd">
<svg width="100%" height="100%" viewBox="0 0 245 245" version="1.1" xmlns="http://www.w3.org/2000/svg" xmlns:xlink="http://www.w3.org/1999/xlink" xml:space="preserve" xmlns:serif="http://www.serif.com/" style="fill-rule:evenodd;clip-rule:evenodd;stroke-linejoin:round;stroke-miterlimit:2;">
    <rect id="Artboard1" x="0" y="0" width="245" height="245" style="fill:none;"/>
    <g id="Artboard11" serif:id="Artboard1">
        <g transform="matrix(1,0,0,1.00426,0,-0.521277)">
            <path d="M241,25.611C241,14.235 231.725,5 220.302,5L25.698,5C14.275,5 5,14.235 5,25.611L5,219.389C5,230.765 14.275,240 25.698,240L220.302,240C231.725,240 241,230.765 241,219.389L241,25.611Z" style="fill:rgb(233,245,255);stroke:rgb(112,112,112);stroke-width:2.49px;"/>
        </g>
        <g transform="matrix(1,0,0,1,0.5,-5.4)">
            <g transform="matrix(6.77273,0,0,6.77273,48,15.8545)">
                <path d="M6,18L6,20L4,20L4,18L6,18ZM6,6L6,8L4,8L4,6L6,6ZM18,6L18,8L16,8L16,6L18,6ZM2,21.984L8,21.984L8,16L2,16L2,21.984ZM2,10L8,10L8,4L2,4L2,10ZM14,10L20,10L20,4L14,4L14,10ZM10,14L10,24L0,24L0,14L10,14ZM18,22L18,24L16,24L16,22L18,22ZM22,22L22,24L20,24L20,22L22,22ZM22,14L22,20L16,20L16,18L14,18L14,24L12,24L12,14L18,14L18,16L20,16L20,14L22,14ZM10,2L10,12L0,12L0,2L10,2ZM22,2L22,12L12,12L12,2L22,2Z" style="fill:rgb(18,154,230);fill-rule:nonzero;"/>
            </g>
            <g transform="matrix(1,0,0,1,-2,-15.6)">
                <g transform="matrix(44,0,0,44,23.894,243.364)">
                    <path d="M0.809,-0.065C0.816,-0.058 0.82,-0.049 0.82,-0.039C0.82,-0.028 0.816,-0.019 0.809,-0.012C0.801,-0.004 0.792,0 0.782,0C0.772,0 0.763,-0.004 0.755,-0.012L0.702,-0.065C0.669,-0.041 0.632,-0.023 0.591,-0.01C0.55,0.004 0.506,0.01 0.461,0.01C0.385,0.01 0.317,-0.007 0.256,-0.042C0.195,-0.077 0.148,-0.125 0.114,-0.186C0.079,-0.247 0.062,-0.315 0.062,-0.391C0.062,-0.467 0.079,-0.535 0.114,-0.596C0.148,-0.657 0.195,-0.704 0.256,-0.739C0.317,-0.774 0.385,-0.791 0.461,-0.791C0.536,-0.791 0.605,-0.774 0.666,-0.739C0.727,-0.704 0.774,-0.657 0.809,-0.596C0.843,-0.535 0.86,-0.467 0.86,-0.391C0.86,-0.337 0.851,-0.287 0.834,-0.24C0.816,-0.193 0.791,-0.151 0.758,-0.116L0.809,-0.065ZM0.461,-0.064C0.532,-0.064 0.593,-0.083 0.646,-0.12L0.539,-0.227C0.531,-0.235 0.527,-0.244 0.527,-0.254C0.527,-0.264 0.531,-0.273 0.539,-0.281C0.546,-0.288 0.555,-0.292 0.565,-0.292C0.576,-0.292 0.585,-0.288 0.592,-0.281L0.703,-0.17C0.728,-0.199 0.748,-0.233 0.762,-0.271C0.776,-0.309 0.783,-0.349 0.783,-0.391C0.783,-0.452 0.769,-0.507 0.741,-0.557C0.713,-0.606 0.675,-0.645 0.626,-0.674C0.577,-0.703 0.522,-0.717 0.461,-0.717C0.4,-0.717 0.345,-0.703 0.296,-0.674C0.247,-0.645 0.208,-0.606 0.18,-0.557C0.152,-0.507 0.138,-0.452 0.138,-0.391C0.138,-0.33 0.152,-0.274 0.18,-0.225C0.208,-0.175 0.247,-0.136 0.296,-0.107C0.345,-0.078 0.4,-0.064 0.461,-0.064Z" style="fill:rgb(81,81,81);fill-rule:nonzero;"/>
                </g>
                <g transform="matrix(44,0,0,44,64.418,243.364)">
                    <path d="M0.588,-0.06C0.594,-0.05 0.597,-0.041 0.597,-0.033C0.597,-0.023 0.593,-0.015 0.586,-0.009C0.579,-0.003 0.569,0 0.557,0C0.549,0 0.542,-0.002 0.537,-0.005C0.532,-0.008 0.527,-0.013 0.523,-0.02L0.343,-0.306L0.178,-0.306L0.178,-0.039C0.178,-0.028 0.174,-0.018 0.167,-0.011C0.16,-0.004 0.15,0 0.139,0C0.128,0 0.118,-0.004 0.111,-0.011C0.104,-0.018 0.1,-0.028 0.1,-0.039L0.1,-0.742C0.1,-0.753 0.104,-0.763 0.111,-0.77C0.118,-0.777 0.128,-0.781 0.139,-0.781L0.326,-0.781C0.375,-0.781 0.418,-0.771 0.456,-0.751C0.494,-0.73 0.524,-0.702 0.546,-0.665C0.567,-0.628 0.578,-0.587 0.578,-0.54C0.578,-0.489 0.564,-0.444 0.537,-0.405C0.509,-0.366 0.471,-0.339 0.424,-0.322L0.588,-0.06ZM0.326,-0.381C0.359,-0.381 0.389,-0.388 0.417,-0.402C0.444,-0.415 0.464,-0.434 0.48,-0.458C0.495,-0.482 0.502,-0.509 0.502,-0.54C0.502,-0.572 0.495,-0.601 0.48,-0.626C0.464,-0.651 0.444,-0.671 0.417,-0.685C0.39,-0.699 0.36,-0.706 0.326,-0.706L0.178,-0.706L0.178,-0.381L0.326,-0.381Z" style="fill:rgb(81,81,81);fill-rule:nonzero;"/>
                </g>
                <g transform="matrix(44,0,0,44,104.502,243.364)">
                    <path d="M0.451,0.01C0.38,0.01 0.315,-0.008 0.256,-0.044C0.197,-0.08 0.15,-0.129 0.115,-0.19C0.08,-0.251 0.062,-0.318 0.062,-0.391C0.062,-0.463 0.079,-0.53 0.114,-0.591C0.149,-0.652 0.196,-0.701 0.255,-0.737C0.314,-0.773 0.38,-0.791 0.451,-0.791C0.499,-0.791 0.543,-0.784 0.582,-0.77C0.621,-0.756 0.659,-0.734 0.696,-0.703C0.703,-0.698 0.707,-0.69 0.707,-0.68C0.707,-0.675 0.706,-0.67 0.703,-0.666C0.7,-0.661 0.697,-0.658 0.692,-0.656C0.691,-0.651 0.688,-0.648 0.683,-0.645C0.678,-0.642 0.673,-0.641 0.668,-0.641C0.658,-0.641 0.65,-0.644 0.643,-0.65C0.617,-0.673 0.589,-0.69 0.558,-0.701C0.527,-0.712 0.492,-0.717 0.451,-0.717C0.395,-0.717 0.343,-0.702 0.295,-0.673C0.247,-0.643 0.209,-0.603 0.181,-0.553C0.152,-0.503 0.138,-0.449 0.138,-0.391C0.138,-0.332 0.152,-0.277 0.18,-0.227C0.208,-0.177 0.246,-0.137 0.294,-0.108C0.342,-0.079 0.394,-0.064 0.451,-0.064C0.524,-0.064 0.589,-0.087 0.648,-0.134C0.655,-0.139 0.663,-0.142 0.67,-0.142C0.68,-0.142 0.689,-0.139 0.696,-0.132C0.703,-0.125 0.707,-0.115 0.707,-0.104C0.707,-0.093 0.703,-0.084 0.696,-0.076C0.633,-0.019 0.552,0.01 0.451,0.01Z" style="fill:rgb(81,81,81);fill-rule:nonzero;"/>
                </g>
                <g transform="matrix(44,0,0,44,137.194,243.364)">
                    <path d="M0.339,0.005C0.286,0.005 0.239,-0.007 0.197,-0.031C0.154,-0.055 0.121,-0.088 0.097,-0.131C0.073,-0.173 0.061,-0.22 0.061,-0.273C0.061,-0.326 0.073,-0.373 0.097,-0.416C0.121,-0.459 0.154,-0.492 0.197,-0.516C0.239,-0.54 0.286,-0.552 0.339,-0.552C0.392,-0.552 0.439,-0.54 0.481,-0.516C0.523,-0.492 0.556,-0.459 0.581,-0.416C0.605,-0.373 0.617,-0.326 0.617,-0.273C0.617,-0.22 0.605,-0.173 0.581,-0.131C0.557,-0.088 0.524,-0.055 0.482,-0.031C0.439,-0.007 0.392,0.005 0.339,0.005ZM0.339,-0.065C0.378,-0.065 0.412,-0.074 0.443,-0.092C0.474,-0.11 0.498,-0.135 0.515,-0.167C0.532,-0.198 0.541,-0.234 0.541,-0.273C0.541,-0.313 0.532,-0.349 0.515,-0.381C0.498,-0.412 0.474,-0.437 0.443,-0.455C0.412,-0.473 0.378,-0.482 0.339,-0.482C0.301,-0.482 0.267,-0.473 0.236,-0.455C0.205,-0.437 0.18,-0.412 0.163,-0.381C0.145,-0.349 0.136,-0.313 0.136,-0.273C0.136,-0.234 0.145,-0.198 0.163,-0.167C0.18,-0.135 0.205,-0.11 0.236,-0.092C0.267,-0.074 0.301,-0.065 0.339,-0.065Z" style="fill:rgb(81,81,81);fill-rule:nonzero;"/>
                </g>
                <g transform="matrix(44,0,0,44,166.982,243.364)">
                    <path d="M0.616,-0.518C0.617,-0.516 0.617,-0.513 0.617,-0.509L0.617,-0.274C0.617,-0.222 0.605,-0.175 0.581,-0.132C0.556,-0.089 0.523,-0.056 0.481,-0.032C0.438,-0.007 0.391,0.005 0.339,0.005C0.287,0.005 0.24,-0.007 0.198,-0.032C0.155,-0.056 0.122,-0.089 0.098,-0.132C0.073,-0.175 0.061,-0.222 0.061,-0.274C0.061,-0.326 0.073,-0.373 0.097,-0.416C0.12,-0.458 0.153,-0.491 0.194,-0.516C0.235,-0.54 0.28,-0.552 0.331,-0.552C0.374,-0.552 0.414,-0.543 0.45,-0.525C0.486,-0.506 0.516,-0.481 0.539,-0.449L0.539,-0.742C0.539,-0.753 0.543,-0.763 0.55,-0.77C0.557,-0.777 0.567,-0.781 0.578,-0.781C0.589,-0.781 0.599,-0.777 0.606,-0.77C0.612,-0.763 0.616,-0.753 0.616,-0.742L0.616,-0.518ZM0.339,-0.065C0.377,-0.065 0.411,-0.074 0.442,-0.093C0.473,-0.111 0.497,-0.136 0.515,-0.168C0.532,-0.199 0.541,-0.235 0.541,-0.274C0.541,-0.285 0.541,-0.294 0.54,-0.299C0.539,-0.3 0.539,-0.302 0.539,-0.304C0.532,-0.356 0.511,-0.399 0.474,-0.432C0.436,-0.465 0.392,-0.482 0.339,-0.482C0.301,-0.482 0.267,-0.473 0.236,-0.455C0.205,-0.437 0.18,-0.412 0.163,-0.381C0.145,-0.349 0.136,-0.313 0.136,-0.274C0.136,-0.235 0.145,-0.199 0.163,-0.168C0.18,-0.136 0.205,-0.111 0.236,-0.093C0.267,-0.074 0.301,-0.065 0.339,-0.065Z" style="fill:rgb(81,81,81);fill-rule:nonzero;"/>
                </g>
                <g transform="matrix(44,0,0,44,198.09,243.364)">
                    <path d="M0.323,-0.552C0.372,-0.552 0.416,-0.541 0.454,-0.518C0.492,-0.494 0.522,-0.463 0.543,-0.422C0.564,-0.381 0.574,-0.335 0.574,-0.283C0.574,-0.272 0.571,-0.264 0.564,-0.258C0.557,-0.251 0.549,-0.248 0.538,-0.248L0.134,-0.248C0.139,-0.193 0.161,-0.149 0.198,-0.115C0.235,-0.081 0.282,-0.064 0.338,-0.064C0.362,-0.064 0.386,-0.068 0.411,-0.077C0.435,-0.085 0.454,-0.095 0.469,-0.108C0.478,-0.115 0.487,-0.118 0.496,-0.118C0.503,-0.118 0.511,-0.115 0.518,-0.11C0.527,-0.102 0.531,-0.093 0.531,-0.083C0.531,-0.074 0.527,-0.067 0.52,-0.06C0.498,-0.041 0.47,-0.026 0.436,-0.014C0.402,-0.001 0.369,0.005 0.338,0.005C0.285,0.005 0.237,-0.007 0.195,-0.031C0.153,-0.054 0.12,-0.087 0.097,-0.13C0.073,-0.172 0.061,-0.22 0.061,-0.273C0.061,-0.327 0.072,-0.375 0.095,-0.418C0.117,-0.46 0.148,-0.493 0.188,-0.517C0.227,-0.54 0.272,-0.552 0.323,-0.552ZM0.323,-0.483C0.272,-0.483 0.23,-0.467 0.197,-0.436C0.164,-0.405 0.143,-0.363 0.136,-0.312L0.502,-0.312C0.497,-0.363 0.478,-0.405 0.446,-0.436C0.414,-0.467 0.373,-0.483 0.323,-0.483Z" style="fill:rgb(81,81,81);fill-rule:nonzero;"/>
                </g>
            </g>
        </g>
    </g>
</svg>
